#!OML:ASF E:/inclinewalkrobotboard/Project1/Captureday1/Session1/subject1.ASF
:FULLY-SPECIFIED
:DEGREES
288
root 0 0 0 -1.1765634123485014 -2.846690723653025 -0.8883215763851442
lowerback 10.944483536127564 0.5622304028517804 0.480347592137564
upperback -1.1002378643865844 0.8807513187810324 0.9192052688343912
thorax -7.271927681545254 0.40484493582261194 0.4523595339314303
lowerneck -13.44020467454081 -1.423342298435877 0.19574290843964776
upperneck 19.0513345694618 -1.42585982192497 -2.318321081358228
head 8.218140880425224 -0.8189290029654075 -0.9931931772546578
rclavicle -4.648429096410279E-16 -2.261096510837751E-16
rhumerus -11.854601311658866 -6.817254714248514 -67.33052610853724
rradius 42.864406688501894
rwrist 11.970608505166267
rhand -23.57319970910881 -5.383951122395642
rfingers 7.125020000000134
rthumb 3.131570870430224 -35.534547876444904
lclavicle -9.913928207441293E-16 -7.925375305116477E-16
lhumerus -12.852402131610756 -3.9954476286675717 69.02350879888122
lradius 43.30511696657458
lwrist -4.832580056398878
lhand -33.160859833262585 -9.919895709169124
lfingers 7.125020000000132
lthumb -6.460244266110468 19.155069739636065
rfemur 6.371438581740655 5.143140419937442 33.438394893643945
rtibia 51.01938261423169
rfoot -6.013644989523917 -0.6973821348812166
rtoes 10.389612792025714
lfemur -6.782552983094259 -5.553568273479347 -22.776097944844132
ltibia 7.173118050100779
lfoot -14.97178303011941 5.257429971839754
ltoes 0.058874779162438884
289
root 0 0 0 -1.1810426408974284 -2.8449321543817283 -0.8933102888242945
lowerback 10.942585606630637 0.5615010443330626 0.48149830138127114
upperback -1.093789096284174 0.8804738240957682 0.9219883375681379
thorax -7.263865832785972 0.4045357053559978 0.45497680079623737
lowerneck -13.453263257598518 -1.4291182971128882 0.18763070296670215
upperneck 19.05135876091817 -1.435238292877393 -2.307460868671212
head 8.220469148056807 -0.8227658046319752 -0.9889937394390265
rclavicle -4.655039059756195E-16 -2.156828090157617E-16
rhumerus -12.025552770989995 -6.931663066236873 -67.4351972827907
rradius 42.702817654654666
rwrist 11.89013659004274
rhand -23.51594351104449 -5.103521443446027
rfingers 7.125020000000135
rthumb 3.1898130876297843 -35.26042676269381
lclavicle -9.94256418586855E-16 -7.926781209614626E-16
lhumerus -12.921424923210676 -3.979338223191834 69.07384287507821
lradius 43.24826563789716
lwrist -4.791791997321943
lhand -33.136564713602965 -9.785650426053559
lfingers 7.1250200000001325
lthumb -6.436856760993481 19.284046065081185
rfemur 2.6498432335925095 4.1411025593883135 31.569176275615362
rtibia 55.695114289558134
rfoot -3.382847659342236 -0.8742432271002176
rtoes 10.887111933744302
lfemur -2.0237962962795475 -5.632401405454733 -24.746690747938885
ltibia 6.480866636846432
lfoot -15.592283047015265 4.259675645554957
ltoes -0.41875828197822695
290
root 0 0 0 -1.1822632553862125 -2.844174821248768 -0.8948049402035296
lowerback 10.941961702553328 0.5611629849934902 0.4814278817993559
upperback -1.091675681516004 0.8803943855615353 0.9228742350068913
thorax -7.261341090177299 0.40441388250382676 0.45593947791144684
lowerneck -13.45692140299752 -1.4308416229940422 0.18509045134040275
upperneck 19.051144337689998 -1.4383293897499354 -2.3045093717137437
head 8.22113601895372 -0.8239449779003815 -0.9877472476583685
rclavicle -4.652524910320544E-16 -2.089561049520982E-16
rhumerus -12.119713554950103 -6.9945417699683095 -67.49239690144918
rradius 42.6150925522532
rwrist 11.846316116626866
rhand -23.484754918189488 -4.949527284914201
rfingers 7.125020000000135
rthumb 3.221758749464055 -35.11108970183435
lclavicle -9.952316841795952E-16 -7.931765559492007E-16
lhumerus -12.914572668766995 -3.9811869002109033 69.06976657196802
lradius 43.25258716396584
lwrist -4.793838707296038
lhand -33.13818038721338 -9.791756930164508
lfingers 7.1250200000001325
lthumb -6.438413687329929 19.27141158866603
rfemur -2.0604662446517814 2.9729333979866057 29.268861795765027
rtibia 60.822901932849604
rfoot -0.4807903921093928 -1.2148497322538674
rtoes 11.250696156924793
lfemur 2.005244661826941 -5.601890699972685 -26.349247962611386
ltibia 6.612961971204307
lfoot -15.829468073630345 3.1448808251507963
ltoes -0.8739283508064464
291
root 0 0 0 -1.179825957499322 -2.8444823180088252 -0.8923999335123065
lowerback 10.94274672588283 0.5612426595295849 0.47999290843531545
upperback -1.094324295678248 0.8804976282956894 0.9216659869820619
thorax -7.264985261695232 0.4044970268414107 0.45507912014933605
lowerneck -13.450181712861058 -1.428070781977505 0.18878947670225554
upperneck 19.05066176878676 -1.43449855469082 -2.3103571485088703
head 8.219968303455065 -0.8221877766215985 -0.9897912489291725
rclavicle -4.640939260502211E-16 -2.0651086579809272E-16
rhumerus -12.131814326034764 -7.002735676354959 -67.4989108203441
rradius 42.605991894924806
rwrist 11.841579897715956
rhand -23.481345611819812 -4.931303607495855
rfingers 7.125020000000135
rthumb 3.2254428215882633 -35.0949735949193
lclavicle -9.930756472557897E-16 -7.946568156810344E-16
lhumerus -12.818028256301163 -4.004420910497785 69.00144069050795
lradius 43.3292756937796
lwrist -4.846473379961114
lhand -33.17045818107061 -9.963975732187217
lfingers 7.125020000000132
lthumb -6.4696094022160295 19.093537907538423
rfemur -7.448780835244886 1.8014328798574124 26.754951973387556
rtibia 65.42879332228138
rfoot 2.211436078189129 -1.7691392894104956
rtoes 11.302988635328322
lfemur 5.278395996004816 -5.485523122684541 -27.607508048858527
ltibia 7.342135088095574
lfoot -15.825044729081986 2.0206133796803423
ltoes -1.3132816616395822
292
root 0 0 0 -1.1740146626126287 -2.8456980386500113 -0.8864410326437066
lowerback 10.944815773401865 0.5616922429330405 0.4773723476074379
upperback -1.1012632578945682 0.8807376740989162 0.9185470266804426
thorax -7.274278136774041 0.40476251944277475 0.4525790255095531
lowerneck -13.43398053296313 -1.4212335713405635 0.1982049155262215
upperneck 19.049895754709933 -1.4244493803994125 -2.324192339374376
head 8.217126032068245 -0.8177946721443854 -0.9948264697799231
rclavicle -4.621181205750126E-16 -2.083670922965006E-16
rhumerus -12.06933104445547 -6.961663310846351 -67.45946656612355
rradius 42.66776948849554
rwrist 11.872229179962796
rhand -23.503038474499427 -5.036812414648261
rfingers 7.125020000000135
rthumb 3.2033611003364477 -35.199742590767244
lclavicle -9.875347057894619E-16 -7.976044131689653E-16
lhumerus -12.628958601989641 -4.04990819025915 68.86699764330292
lradius 43.480523409962274
lwrist -4.950963780405725
lhand -33.23439997828857 -10.30719381491782
lfingers 7.125020000000131
lthumb -6.5314505589303105 18.747528418689612
rfemur -12.922106099752925 0.8532859086789868 24.361438951713417
rtibia 68.33695459133905
rfoot 4.1812661808817175 -2.541030787036278
rtoes 10.926326423401234
lfemur 7.8866441136417915 -5.306879278105226 -28.573476337797704
ltibia 8.482425965606293
lfoot -15.67666532517462 0.9372300222375527
ltoes -1.7590765700328426
293
root 0 0 0 -1.1660352376319594 -2.8474366336353403 -0.8782467121619307
lowerback 10.947703175413663 0.5623753388054067 0.4740853298726674
upperback -1.1108938145503031 0.8810380186814974 0.9142027580208534
thorax -7.287178257535031 0.40513544343697216 0.44905493442096955
lowerneck -13.41175422460347 -1.411856659257457 0.2112570824971089
upperneck 19.048876977537894 -1.4105519036172462 -2.343035821019093
head 8.213197397693463 -0.8117762680180903 -1.0017467454837348
rclavicle -4.596828345464434E-16 -2.1376746910890206E-16
rhumerus -11.9536018511021 -6.885657284625132 -67.38729486826581
rradius 42.77958955746816
rwrist 11.927989361095197
rhand -23.5424756401263 -5.230379080982805
rfingers 7.125020000000134
rthumb 3.1629815122113056 -35.39062248185047
lclavicle -9.7964958528728E-16 -8.018515362048502E-16
lhumerus -12.364536426004841 -4.113711026622405 68.67880033977185
lradius 43.69246649703805
lwrist -5.097207764187252
lhand -33.324244103744604 -10.789566473907374
lfingers 7.12502000000013
lthumb -6.6182261294114655 18.265757972486526
rfemur -17.948004016945585 0.25419238681287526 22.316073870759684
rtibia 69.06903385978015
rfoot 5.242451247230882 -3.473544588628555
rtoes 10.143523543337865
lfemur 9.994631307409877 -5.085987885224463 -29.30874974180584
ltibia 9.918951453904182
lfoot -15.42040461355937 -0.11352881657775038
ltoes -2.2449821878592715
